<svg id="FONDO" xmlns="http://www.w3.org/2000/svg" viewBox="0 0 35.84 56"><defs><style>.cls-1{fill:none;stroke:#c7c9cc;stroke-linejoin:round;}</style></defs><title>ICONOS</title><path class="cls-1" d="M23.71,43.27l-1,12.23,12.65-8.89L28.91,39.2l2.74-3.46L32,25.06l-7,3.71,6.8-5.87.24-3L24.52,13.7l-3.61.64,5.25-7.48A30.62,30.62,0,0,0,23,3C21.91,2.11,19.34.5,17.92.5s-4,1.61-5.1,2.49A30.62,30.62,0,0,0,9.68,6.86l5.25,7.48-3.61-.64L3.85,19.91l.24,3,6.79,5.87-7-3.71.34,10.68L6.93,39.2.5,46.61,13.15,55.5l-1-12.23-1.3-6.05-4-1.84L7.44,32l8.41,1.6-.29,6.73-.68,2.16,3,4.82,3-4.82-.67-2.16L20,33.58,28.4,32l.59,3.4-4,1.84Z"/></svg>