<svg id="FONDO" xmlns="http://www.w3.org/2000/svg" viewBox="0 0 34.17 34.17"><defs><style>.cls-1{fill:#fff;}.cls-2{fill:#005098;}</style></defs><title>ICONOS</title><g id="Jb5dIW"><path class="cls-1" d="M24.44.09A2.5,2.5,0,0,1,22,1.52c-6-.07-11.94,0-17.91,0-1.83,0-2.62.79-2.62,2.59q0,9.7,0,19.39A2.26,2.26,0,0,0,4,26q9.74,0,19.47,0C25.2,26,26,25.11,26,23.3c0-4.87.05-9.74,0-14.61A3.22,3.22,0,0,1,27.38,6a4.87,4.87,0,0,1,.06.54V23.72a3.46,3.46,0,0,1-2.09,3.36,3.51,3.51,0,0,1-1.42.33q-10.18,0-20.38,0C1.44,27.41,0,25.77,0,23.48c0-4.71,0-9.41,0-14.11C0,7.61,0,5.84,0,4.08A3.73,3.73,0,0,1,4.05,0q9.65,0,19.3,0C23.7,0,24,.06,24.44.09Z"/><path class="cls-1" d="M29,8.12V6.86a3.82,3.82,0,0,1,5.12,3.71q0,9.86,0,19.71a3.67,3.67,0,0,1-3.9,3.87q-9.83,0-19.63,0a3.65,3.65,0,0,1-3.9-3.85V29.08H8.13c0,.38,0,.75,0,1.13a2.26,2.26,0,0,0,2.53,2.47H30.13c1.75,0,2.55-.82,2.55-2.59V10.79c0-1.83-.82-2.64-2.67-2.67Z"/></g><path class="cls-2" d="M12.68,18.84,26.52,3.46h0a.74.74,0,0,0-.06-1,.73.73,0,0,0-1,.07l0,0h0L12.58,16.8,6.43,11.35l-.94,1.09"/></svg>