<svg xmlns="http://www.w3.org/2000/svg" viewBox="0 0 23.73 21.18"><defs><style>.cls-1{fill:#c7c9cc;}</style></defs><title>ICONOS</title><g id="TEXTO_E_ICONOS" data-name="TEXTO E ICONOS"><path class="cls-1" d="M20.27,14.88A10.4,10.4,0,0,0,21,12.45H20.7A12.53,12.53,0,0,1,20.27,14.88Z"/><path class="cls-1" d="M19.55,11.82a14.3,14.3,0,0,1-.19,1.73,8.79,8.79,0,0,0,.45-2.19A.59.59,0,0,0,19.55,11.82Z"/><path class="cls-1" d="M22,11.26h-.83A11.71,11.71,0,0,1,21,12.45h2.12a.61.61,0,0,0,.53-.32.6.6,0,0,0-.05-.62l-2.93-4.1a10.55,10.55,0,0,1,.48,2.71Z"/><path class="cls-1" d="M13.24,19.46c2.88-2.42,2.88-5.05,2.88-7.61a.58.58,0,0,0-.18-.42.59.59,0,0,0-.42-.17H13.68l4.16-5.8,1.49,2.09a9.24,9.24,0,0,0-2-3.35L12,11.51a.56.56,0,0,0,0,.61.59.59,0,0,0,.53.33h2.4c0,2.71-.29,5.09-4.31,7.37l0,0h0A9.28,9.28,0,0,0,13.24,19.46Z"/><path class="cls-1" d="M13.74,20.7a9.28,9.28,0,0,0,3-1.06,7.72,7.72,0,0,0,3.52-4.76A10.62,10.62,0,0,1,13.74,20.7Z"/><path class="cls-1" d="M17.84,3.85a.58.58,0,0,0-.48.25l-.08.1a9.24,9.24,0,0,1,2,3.35l1.84,2.57a10.55,10.55,0,0,0-.48-2.71L18.32,4.1A.58.58,0,0,0,17.84,3.85Z"/><path class="cls-1" d="M20.14,11.26a.64.64,0,0,0-.33.1,8.79,8.79,0,0,1-.45,2.19,6.78,6.78,0,0,1-6.3,6.06l.18-.15a9.28,9.28,0,0,1-2.65.39h0a.59.59,0,0,0-.26.48.68.68,0,0,0,0,.15.6.6,0,0,0,.58.45,15.74,15.74,0,0,0,2.82-.23,10.62,10.62,0,0,0,6.53-5.82,12.53,12.53,0,0,0,.43-2.43H21a11.71,11.71,0,0,0,.14-1.19Z"/><path class="cls-1" d="M13.74,20.7a15.74,15.74,0,0,1-2.82.23.6.6,0,0,1-.58-.45.68.68,0,0,1,0-.15.59.59,0,0,1,.26-.48,9.26,9.26,0,1,1,5.09-17,.65.65,0,0,1-.29-.55.67.67,0,0,1,.67-.66.73.73,0,0,1,.33.08,10.59,10.59,0,1,0-2.64,19Z"/><path class="cls-1" d="M16.38,1.72l.07.05Z"/><path class="cls-1" d="M15.67,2.85h0Z"/><path class="cls-1" d="M15.38,2.3a.65.65,0,0,0,.29.55h0a.67.67,0,0,0,.77-1.09l-.07-.05a.73.73,0,0,0-.33-.08A.67.67,0,0,0,15.38,2.3Z"/></g></svg>