<svg xmlns="http://www.w3.org/2000/svg" viewBox="0 0 20.97 21.58"><defs><style>.cls-1{fill:#c7c9cc;}</style></defs><title>ICONOS</title><g id="TEXTO_E_ICONOS" data-name="TEXTO E ICONOS"><path class="cls-1" d="M6.57,1.11a10.09,10.09,0,0,0-2.24,1.2l.22.22A13.09,13.09,0,0,1,6.57,1.11Z"/><path class="cls-1" d="M4.92,3.78A13.64,13.64,0,0,1,6.28,2.7,8.63,8.63,0,0,0,4.41,3.93.58.58,0,0,0,4.92,3.78Z"/><path class="cls-1" d="M2.8,2.46l.59.59a8.26,8.26,0,0,1,.94-.74L2.82.8a.59.59,0,0,0-1,.32L1,6.1A10.76,10.76,0,0,1,2.57,3.85Z"/><path class="cls-1" d="M14.78,2.85C11,2.53,9.18,4.38,7.37,6.19a.62.62,0,0,0-.18.42A.56.56,0,0,0,7.37,7l1.3,1.31-7,1.15L2.05,7a9.29,9.29,0,0,0-.92,3.82L10,9.32a.6.6,0,0,0,.32-1l-1.7-1.7c1.93-1.9,3.8-3.39,8.25-2.16h.05A9.18,9.18,0,0,0,14.78,2.85Z"/><path class="cls-1" d="M15.3,1.62A9.21,9.21,0,0,0,12.43.24a7.74,7.74,0,0,0-5.86.87A10.65,10.65,0,0,1,15.3,1.62Z"/><path class="cls-1" d="M.49,10.63A.6.6,0,0,0,1,10.8l.12,0A9.29,9.29,0,0,1,2.05,7l.52-3.11A10.76,10.76,0,0,0,1,6.1l-.66,4A.59.59,0,0,0,.49,10.63Z"/><path class="cls-1" d="M4.1,3.76a.68.68,0,0,0,.31.17A8.63,8.63,0,0,1,6.28,2.7,6.77,6.77,0,0,1,15,2.87l-.23,0a9.18,9.18,0,0,1,2.15,1.6h0a.6.6,0,0,0,.52-.17.27.27,0,0,0,.09-.12.57.57,0,0,0-.09-.71A15,15,0,0,0,15.3,1.62a10.65,10.65,0,0,0-8.73-.51,13.09,13.09,0,0,0-2,1.42l-.22-.22a8.26,8.26,0,0,0-.94.74Z"/><path class="cls-1" d="M15.3,1.62a15,15,0,0,1,2.16,1.84.57.57,0,0,1,.09.71.27.27,0,0,1-.09.12.6.6,0,0,1-.52.17A9.26,9.26,0,1,1,1.32,12.87a.67.67,0,0,1-1.13.6.75.75,0,0,1-.17-.3A10.59,10.59,0,1,0,17.87,3.51,10.14,10.14,0,0,0,15.3,1.62Z"/><path class="cls-1" d="M0,13.17v-.08S0,13.14,0,13.17Z"/><path class="cls-1" d="M1.32,12.87h0Z"/><path class="cls-1" d="M1.14,13.47a.67.67,0,0,0,.18-.6h0a.75.75,0,0,0-.18-.34.68.68,0,0,0-.95,0,.68.68,0,0,0-.18.57v.08a.75.75,0,0,0,.17.3A.68.68,0,0,0,1.14,13.47Z"/></g></svg>