<svg id="FONDO" xmlns="http://www.w3.org/2000/svg" viewBox="0 0 34.3 23.15"><defs><style>.cls-1{fill:#fff;}.cls-2{fill:#005098;}</style></defs><title>ICONOS</title><path class="cls-1" d="M28.32,5.45a20.94,20.94,0,0,1,5.82,5.61.89.89,0,0,1,0,1,20.52,20.52,0,0,1-17,8.81,18.18,18.18,0,0,1-4.79-.53l.75-.75a.93.93,0,0,1,.76-.26,30.83,30.83,0,0,0,3.28.21,19.33,19.33,0,0,0,15.33-7.43,1,1,0,0,0,0-1.13,19.54,19.54,0,0,0-5.73-5l.4-.41A1,1,0,0,1,28.32,5.45Z"/><path class="cls-1" d="M22.48,11.58a3.75,3.75,0,0,0-.13-1.2l-1,.94a1,1,0,0,0-.26.61A3.83,3.83,0,0,1,20,14.38a4.12,4.12,0,0,1-2.44,1.18,1,1,0,0,0-.61.26l-.94.95a3.72,3.72,0,0,0,1.19.13,5.33,5.33,0,0,0,5.33-5.32Z"/><path class="cls-1" d="M6.63,18.1l.93-.93a19.54,19.54,0,0,1-5.73-5,.94.94,0,0,1,0-1.13A19.3,19.3,0,0,1,17.15,3.58a30.85,30.85,0,0,1,3.29.21.93.93,0,0,0,.76-.26L22,2.78a18.3,18.3,0,0,0-4.8-.53,20.52,20.52,0,0,0-17,8.81.92.92,0,0,0,0,1,21.2,21.2,0,0,0,6.47,6Z"/><path class="cls-2" d="M7.16,22.88,28.46,1.59a.94.94,0,0,0,0-1.32h0a.94.94,0,0,0-1.32,0L5.85,21.57a.92.92,0,0,0,0,1.32h0A.93.93,0,0,0,7.16,22.88Z"/><path class="cls-1" d="M14.35,8.78A3.83,3.83,0,0,1,16.8,7.59a1,1,0,0,0,.61-.27l.94-.94a3.75,3.75,0,0,0-1.2-.13,5.33,5.33,0,0,0-5.32,5.33A3.72,3.72,0,0,0,12,12.77l.94-.94a.93.93,0,0,0,.27-.61,3.89,3.89,0,0,1,1.18-2.44Z"/></svg>