<svg id="FONDO" xmlns="http://www.w3.org/2000/svg" viewBox="0 0 45 52.23"><defs><style>.cls-1{fill:none;stroke:#c7c9cc;stroke-linejoin:round;}</style></defs><title>ICONOS</title><path class="cls-1" d="M36,37.22a20.26,20.26,0,0,0,5.56-1.9l.1-.06c2.89-1.81,2.89-7.32,2.89-7.32a7.82,7.82,0,0,1-2.77,2.69,13.79,13.79,0,0,1-5.38,1.69A23.09,23.09,0,0,0,41.5,29a6.8,6.8,0,0,0,1.24-1.43c1.58-2.53,1.17-8.41,1.17-8.41a17.55,17.55,0,0,1-3.86,5.2,11.86,11.86,0,0,1-4.47,2.72,42.89,42.89,0,0,0,3.74-4.14,20.07,20.07,0,0,0,2.83-4.64c1.58-4.08-2-9.78-2-9.78a18.78,18.78,0,0,1-3.36,10.88,17.24,17.24,0,0,1-3.61,3.89,28.39,28.39,0,0,0,2.53-5c2-5,2.77-10.23,2.4-11.6C37.58,4.84,33.41.5,33.41.5a59.6,59.6,0,0,1-1.63,15c-1,3.88-2.64,7.64-5.25,10.09,0,0,5.71,4.43,5.55,9.76a10.78,10.78,0,0,1-5.63,5.19,8,8,0,0,1-1.92-6.6.82.82,0,0,1,.22-.36,2.21,2.21,0,0,0,.39-.42,4,4,0,0,0,.63-2c-.25.43-1,.58-1.84.63s-1.67,0-2.51-.07a9.37,9.37,0,0,0-2.44,0l-.08,0a2.24,2.24,0,0,0-1.21,1.4,5,5,0,0,0-.28,1.09,1.28,1.28,0,0,1,.89-.31,5.27,5.27,0,0,1,2.24.7c.45,3.19-.54,5-1.67,6a10.75,10.75,0,0,1-6-5.31c-.16-5.33,5.55-9.76,5.55-9.76-2.61-2.45-4.23-6.21-5.25-10.09A59.6,59.6,0,0,1,11.59.5S7.42,4.84,6.93,6.7c-.37,1.37.43,6.62,2.4,11.6a28.39,28.39,0,0,0,2.53,5,17.24,17.24,0,0,1-3.61-3.89A18.78,18.78,0,0,1,4.89,8.51s-3.62,5.7-2,9.78a20.07,20.07,0,0,0,2.83,4.64,42.89,42.89,0,0,0,3.74,4.14A11.86,11.86,0,0,1,5,24.35a17.55,17.55,0,0,1-3.86-5.2S.68,25,2.26,27.56A6.8,6.8,0,0,0,3.5,29a23.09,23.09,0,0,0,5.15,3.33,13.79,13.79,0,0,1-5.38-1.69A7.82,7.82,0,0,1,.5,27.94s0,5.51,2.89,7.32l.1.06a20.26,20.26,0,0,0,5.56,1.9,9.88,9.88,0,0,1-5.38-.49,10.52,10.52,0,0,1-2-1S3,38.92,4.57,39.89l.15.09A28.15,28.15,0,0,0,10.3,41.9l0,.1c-.61,1.34-3,1.5-4.16,1-.08,0,2.11,2.53,2.55,3a19.18,19.18,0,0,0,11,5.56h0l.18,0,.19,0,.78.09h.22l.29,0c.34,0,.67,0,1,0h.08c.35,0,.68,0,1,0l.29,0h.22l.78-.09.19,0,.18,0h0a19.18,19.18,0,0,0,11-5.56c.44-.44,2.63-3,2.55-3-1.15.5-3.55.34-4.16-1l.05-.1A28.15,28.15,0,0,0,40.28,40l.15-.09c1.62-1,2.89-4.15,2.89-4.15a10.52,10.52,0,0,1-2,1A9.88,9.88,0,0,1,36,37.22Z"/></svg>