<svg id="FONDO" xmlns="http://www.w3.org/2000/svg" viewBox="0 0 46.6 46.6"><defs><style>.cls-1{fill:none;stroke:#c7c9cc;stroke-linejoin:round;}</style></defs><title>ICONOS</title><polygon class="cls-1" points="12.08 34.52 19.85 19.85 34.52 12.08 26.75 26.75 12.08 34.52"/><path class="cls-1" d="M23.3,46.1A22.8,22.8,0,1,0,.5,23.3,22.8,22.8,0,0,0,23.3,46.1ZM4.84,19.77A18.83,18.83,0,0,1,19.77,4.84L23.3,8.37l3.53-3.53A18.83,18.83,0,0,1,41.76,19.77L38.23,23.3l3.53,3.53A18.84,18.84,0,0,1,26.83,41.76L23.3,38.23l-3.53,3.53A18.84,18.84,0,0,1,4.84,26.83L8.37,23.3Zm0,0"/><circle class="cls-1" cx="23.3" cy="23.3" r="2.24"/><path class="cls-1" d="M19.85,19.85l7.9-4.19A8.84,8.84,0,0,0,15.66,27.75Z"/><path class="cls-1" d="M26.75,26.75l-7.9,4.19A8.84,8.84,0,0,0,30.94,18.85Z"/><circle class="cls-1" cx="23.3" cy="23.3" r="18.8"/></svg>