<svg id="FONDO" xmlns="http://www.w3.org/2000/svg" viewBox="0 0 30.47 28.57"><defs><style>.cls-1{fill:none;stroke:#c7c9cc;stroke-linejoin:round;}</style></defs><title>ICONOS</title><path class="cls-1" d="M15.23,7.72C26.79,8.25,30,11.25,30,11.25,27.65,23.5,15.23,28.07,15.23,28.07V2.5l6.54.75V8"/><polyline class="cls-1" points="21.77 5.79 25.76 6.58 25.76 9.11"/><polyline class="cls-1" points="24.59 6.35 24.59 0.5 15.23 0.5 15.23 0.5"/><path class="cls-1" d="M15.23,7.72C3.68,8.25.5,11.25.5,11.25,2.82,23.5,15.23,28.07,15.23,28.07V2.5l-6.54.75V8"/><polyline class="cls-1" points="8.69 5.79 4.71 6.58 4.71 9.11"/><polyline class="cls-1" points="5.88 6.35 5.88 0.5 15.23 0.5 15.23 0.5"/></svg>