<svg id="FONDO" xmlns="http://www.w3.org/2000/svg" viewBox="0 0 23.29 24.81"><defs><style>.cls-1{fill:none;stroke:#c7c9cc;stroke-linejoin:round;}</style></defs><title>ICONOS</title><path class="cls-1" d="M4.23,3.52h0Z"/><path class="cls-1" d="M4.49,3.42h0Z"/><path class="cls-1" d="M4.53,3.41h0Z"/><path class="cls-1" d="M4.58,3.4h0Z"/><path class="cls-1" d="M3.25,19.31h0Z"/><path class="cls-1" d="M4.44,3.44h0Z"/><path class="cls-1" d="M3.3,19.3h0Z"/><path class="cls-1" d="M4.31,3.48h0Z"/><path class="cls-1" d="M4.35,3.47h0Z"/><path class="cls-1" d="M3.38,19.29h0Z"/><path class="cls-1" d="M4.4,3.45h0Z"/><path class="cls-1" d="M4.2,3.54h0Z"/><path class="cls-1" d="M4.27,3.5h0Z"/><path class="cls-1" d="M2.08,10.75H1.24a.7.7,0,0,1-.74-.63V7.59A.69.69,0,0,1,1.24,7h.84a.69.69,0,0,1,.74.63v2.53a.43.43,0,0,0,0,.05.11.11,0,0,0,0-.05V9.66h.73l0,.53H2.81A.71.71,0,0,1,2.08,10.75Z"/><path class="cls-1" d="M4.73,3.39h0Z"/><path class="cls-1" d="M4.68,3.39h0Z"/><path class="cls-1" d="M4.63,3.4h0Z"/><path class="cls-1" d="M2.82,10.12V7.59A.69.69,0,0,0,2.08,7H1.24a.69.69,0,0,0-.74.63v2.53a.7.7,0,0,0,.74.63h.84a.71.71,0,0,0,.73-.56v0A.43.43,0,0,1,2.82,10.12Z"/><path class="cls-1" d="M2.81,10.19v0Z"/><path class="cls-1" d="M3.69,23.73a.63.63,0,0,0,.68.58H6a.64.64,0,0,0,.69-.58v-2.3a.5.5,0,0,0,0-.12h-3a.49.49,0,0,0,0,.12Z"/><path class="cls-1" d="M3.23,19.31h0Z"/><path class="cls-1" d="M3.33,19.29h0Z"/><path class="cls-1" d="M3.28,19.3h0Z"/><path class="cls-1" d="M4.46,3.43h0Z"/><path class="cls-1" d="M4.61,3.4h0Z"/><path class="cls-1" d="M4.21,3.54l0,0Z"/><path class="cls-1" d="M4.56,3.41h0Z"/><path class="cls-1" d="M4.71,3.39h0Z"/><path class="cls-1" d="M4.2,3.54l-.1.07h0Z"/><path class="cls-1" d="M4.51,3.42h0Z"/><path class="cls-1" d="M4.66,3.39h0Z"/><path class="cls-1" d="M4.29,3.49h0Z"/><path class="cls-1" d="M4.25,3.51h0Z"/><path class="cls-1" d="M4.42,3.44h0Z"/><path class="cls-1" d="M4.33,3.48h0Z"/><path class="cls-1" d="M4.37,3.46h0Z"/><path class="cls-1" d="M19.06,3.52h0Z"/><path class="cls-1" d="M18.8,3.42h0Z"/><path class="cls-1" d="M18.76,3.41h0Z"/><path class="cls-1" d="M18.71,3.4h0Z"/><path class="cls-1" d="M20,19.31h0Z"/><path class="cls-1" d="M18.85,3.44h0Z"/><path class="cls-1" d="M20,19.3h0Z"/><path class="cls-1" d="M19,3.48h0Z"/><path class="cls-1" d="M18.94,3.47h0Z"/><path class="cls-1" d="M19.91,19.29h0Z"/><path class="cls-1" d="M18.89,3.45h0Z"/><path class="cls-1" d="M19.09,3.54h0Z"/><path class="cls-1" d="M19,3.5h0Z"/><path class="cls-1" d="M20.48,10.19h-.72l0-.53h.73v.46a.43.43,0,0,1,0,.05.43.43,0,0,0,0-.05V7.59A.69.69,0,0,1,21.21,7h.84a.69.69,0,0,1,.74.63v2.53a.7.7,0,0,1-.74.63h-.84A.71.71,0,0,1,20.48,10.19Z"/><path class="cls-1" d="M18.56,3.39h0Z"/><path class="cls-1" d="M18.61,3.39h0Z"/><path class="cls-1" d="M18.66,3.4h0Z"/><path class="cls-1" d="M20.09,19.32H3.2a.49.49,0,0,0-.38.45v1.06a.52.52,0,0,0,.56.48H19.91a.52.52,0,0,0,.56-.48V19.77A.49.49,0,0,0,20.09,19.32Z"/><path class="cls-1" d="M20.47,10.12V7.59A.69.69,0,0,1,21.21,7h.84a.69.69,0,0,1,.74.63v2.53a.7.7,0,0,1-.74.63h-.84a.71.71,0,0,1-.73-.56v0A.43.43,0,0,0,20.47,10.12Z"/><path class="cls-1" d="M19,1.32A1,1,0,0,0,18,.5H5.33a1,1,0,0,0-1,.82L4.1,3.61l.1-.07h0l0,0H19.06l0,0h0l.1.07Z"/><path class="cls-1" d="M20.48,10.19v0Z"/><path class="cls-1" d="M19.6,23.73a.63.63,0,0,1-.68.58H17.28a.64.64,0,0,1-.69-.58v-2.3a.5.5,0,0,1,0-.12h3a.49.49,0,0,1,0,.12Z"/><path class="cls-1" d="M19.55,4.25a.83.83,0,0,0-.36-.64l-.1-.07h0l0,0H4.23l0,0h0l-.1.07a.83.83,0,0,0-.36.64L3.2,19.32H20.09Z"/><path class="cls-1" d="M17.18,5.12H6.11A.86.86,0,0,0,5.22,6V9.15a.86.86,0,0,0,.89.84H17.18a.86.86,0,0,0,.89-.84V6A.86.86,0,0,0,17.18,5.12Z"/><path class="cls-1" d="M20.06,19.31h0Z"/><path class="cls-1" d="M20,19.29h0Z"/><path class="cls-1" d="M20,19.3h0Z"/><path class="cls-1" d="M15.45,11.35H7.84c-.65,0-1.09,1.1-.81,2.05L7.51,15c.15.5.46.82.81.82H15c.35,0,.66-.32.81-.82l.48-1.61C16.54,12.45,16.1,11.35,15.45,11.35Z"/><path class="cls-1" d="M18.83,3.43h0Z"/><path class="cls-1" d="M18.68,3.4h0Z"/><path class="cls-1" d="M19.08,3.54l0,0Z"/><path class="cls-1" d="M18.73,3.41h0Z"/><path class="cls-1" d="M18.58,3.39h0Z"/><path class="cls-1" d="M19.09,3.54l.1.07h0Z"/><path class="cls-1" d="M18.78,3.42h0Z"/><path class="cls-1" d="M18.63,3.39h0Z"/><path class="cls-1" d="M19,3.49h0Z"/><path class="cls-1" d="M19,3.51h0Z"/><path class="cls-1" d="M18.87,3.44h0Z"/><path class="cls-1" d="M19,3.48h0Z"/><path class="cls-1" d="M18.92,3.46h0Z"/><circle class="cls-1" cx="6.17" cy="16.99" r="1.27"/><circle class="cls-1" cx="17.12" cy="16.99" r="1.27"/></svg>